HIERARCHY
ROOT Hips
{
  OFFSET 5.72205e-005 65.662 3.42586
  CHANNELS 6 Xposition Yposition Zposition Zrotation Xrotation Yrotation
  JOINT Chest
  {
    OFFSET 0 8.7983 -4.7612
    CHANNELS 3 Zrotation Xrotation Yrotation
    JOINT Chest2
    {
      OFFSET 0 8.0291 0.4195
      CHANNELS 3 Zrotation Xrotation Yrotation
      JOINT Chest3
      {
        OFFSET 0 9.9351 -2.2114
        CHANNELS 3 Zrotation Xrotation Yrotation
        JOINT Neck
        {
          OFFSET 0 22.3885 -0.4656
          CHANNELS 3 Zrotation Xrotation Yrotation
          JOINT Head
          {
            OFFSET -0.0001 12.643 3.4389
            CHANNELS 3 Zrotation Xrotation Yrotation
            End Site
            {
              OFFSET 0.0001 17.6655 0.5274
            }
          }
        }
        JOINT LeftCollar
        {
          OFFSET 2.2603 21.606 7.4023
          CHANNELS 3 Zrotation Xrotation Yrotation
          JOINT LeftShoulder
          {
            OFFSET 13.5163 -1.1332 -5.0146
            CHANNELS 3 Zrotation Xrotation Yrotation
            JOINT LeftElbow
            {
              OFFSET -0.0995 -28.05 -0.2431
              CHANNELS 3 Zrotation Xrotation Yrotation
              JOINT LeftWrist
              {
                OFFSET 0.0679 -23.3996 -0.1402
                CHANNELS 3 Zrotation Xrotation Yrotation
                JOINT LeftFinger1
                {
                  OFFSET 0.7932 -9.069 2.5189
                  CHANNELS 3 Zrotation Xrotation Yrotation
                  JOINT LeftFinger11
                  {
                    OFFSET -0.8272 -3.3923 0.5977
                    CHANNELS 3 Zrotation Xrotation Yrotation
                    JOINT LeftFinger12
                    {
                      OFFSET -0.5649 -2.3158 0.4082
                      CHANNELS 3 Zrotation Xrotation Yrotation
                      End Site
                      {
                        OFFSET -0.4919 -1.6479 0.2673
                      }
                    }
                  }
                }
                JOINT LeftFinger2
                {
                  OFFSET 0.9159 -9.2044 0.2193
                  CHANNELS 3 Zrotation Xrotation Yrotation
                  JOINT LeftFinger21
                  {
                    OFFSET 0.0117 -4.1944 -0.0248
                    CHANNELS 3 Zrotation Xrotation Yrotation
                    JOINT LeftFinger22
                    {
                      OFFSET 0.0071 -2.3249 -0.0142
                      CHANNELS 3 Zrotation Xrotation Yrotation
                      End Site
                      {
                        OFFSET -0.1475 -2.0882 0.0028
                      }
                    }
                  }
                }
                JOINT LeftFinger3
                {
                  OFFSET 0.6113 -8.7231 -2.0637
                  CHANNELS 3 Zrotation Xrotation Yrotation
                  JOINT LeftFinger31
                  {
                    OFFSET -0.1927 -3.8059 -0.2383
                    CHANNELS 3 Zrotation Xrotation Yrotation
                    JOINT LeftFinger32
                    {
                      OFFSET -0.1091 -2.1688 -0.1362
                      CHANNELS 3 Zrotation Xrotation Yrotation
                      End Site
                      {
                        OFFSET -0.2358 -1.9176 -0.0906
                      }
                    }
                  }
                }
                JOINT LeftFinger4
                {
                  OFFSET -0.6151 -8.0947 -3.5641
                  CHANNELS 3 Zrotation Xrotation Yrotation
                  JOINT LeftFinger41
                  {
                    OFFSET -0.4882 -2.341 -0.6462
                    CHANNELS 3 Zrotation Xrotation Yrotation
                    JOINT LeftFinger42
                    {
                      OFFSET -0.3575 -1.7167 -0.4742
                      CHANNELS 3 Zrotation Xrotation Yrotation
                      End Site
                      {
                        OFFSET -0.4187 -1.5237 -0.3496
                      }
                    }
                  }
                }
                JOINT LeftFinger0
                {
                  OFFSET -1.42 -1.8761 1.4223
                  CHANNELS 3 Zrotation Xrotation Yrotation
                  JOINT LeftFinger01
                  {
                    OFFSET -1.1471 -3.4929 2.6334
                    CHANNELS 3 Zrotation Xrotation Yrotation
                    JOINT LeftFinger02
                    {
                      OFFSET -0.823 -2.3 1.6571
                      CHANNELS 3 Zrotation Xrotation Yrotation
                      End Site
                      {
                        OFFSET -0.5822 -1.6914 1.1582
                      }
                    }
                  }
                }
              }
            }
          }
        }
        JOINT RightCollar
        {
          OFFSET -2.2603 21.606 7.4023
          CHANNELS 3 Zrotation Xrotation Yrotation
          JOINT RightShoulder
          {
            OFFSET -13.5187 -1.1334 -5.0155
            CHANNELS 3 Zrotation Xrotation Yrotation
            JOINT RightElbow
            {
              OFFSET 0.0994 -28.0499 -0.2431
              CHANNELS 3 Zrotation Xrotation Yrotation
              JOINT RightWrist
              {
                OFFSET -0.0679 -23.3996 -0.1402
                CHANNELS 3 Zrotation Xrotation Yrotation
                JOINT RightFinger1
                {
                  OFFSET -0.7932 -9.0691 2.5189
                  CHANNELS 3 Zrotation Xrotation Yrotation
                  JOINT RightFinger11
                  {
                    OFFSET 0.8272 -3.3923 0.5977
                    CHANNELS 3 Zrotation Xrotation Yrotation
                    JOINT RightFinger12
                    {
                      OFFSET 0.565 -2.3158 0.4082
                      CHANNELS 3 Zrotation Xrotation Yrotation
                      End Site
                      {
                        OFFSET 0.4919 -1.6479 0.2673
                      }
                    }
                  }
                }
                JOINT RightFinger2
                {
                  OFFSET -0.916 -9.2044 0.2193
                  CHANNELS 3 Zrotation Xrotation Yrotation
                  JOINT RightFinger21
                  {
                    OFFSET -0.0117 -4.1944 -0.0248
                    CHANNELS 3 Zrotation Xrotation Yrotation
                    JOINT RightFinger22
                    {
                      OFFSET -0.0071 -2.3249 -0.0142
                      CHANNELS 3 Zrotation Xrotation Yrotation
                      End Site
                      {
                        OFFSET 0.1475 -2.0882 0.0028
                      }
                    }
                  }
                }
                JOINT RightFinger3
                {
                  OFFSET -0.6113 -8.7231 -2.0637
                  CHANNELS 3 Zrotation Xrotation Yrotation
                  JOINT RightFinger31
                  {
                    OFFSET 0.1927 -3.8059 -0.2383
                    CHANNELS 3 Zrotation Xrotation Yrotation
                    JOINT RightFinger32
                    {
                      OFFSET 0.1091 -2.1688 -0.1362
                      CHANNELS 3 Zrotation Xrotation Yrotation
                      End Site
                      {
                        OFFSET 0.2358 -1.9176 -0.0906
                      }
                    }
                  }
                }
                JOINT RightFinger4
                {
                  OFFSET 0.6151 -8.0947 -3.564
                  CHANNELS 3 Zrotation Xrotation Yrotation
                  JOINT RightFinger41
                  {
                    OFFSET 0.4882 -2.341 -0.6462
                    CHANNELS 3 Zrotation Xrotation Yrotation
                    JOINT RightFinger42
                    {
                      OFFSET 0.3574 -1.7166 -0.4742
                      CHANNELS 3 Zrotation Xrotation Yrotation
                      End Site
                      {
                        OFFSET 0.4187 -1.5237 -0.3496
                      }
                    }
                  }
                }
                JOINT RightFinger0
                {
                  OFFSET 1.4199 -1.8761 1.4221
                  CHANNELS 3 Zrotation Xrotation Yrotation
                  JOINT RightFinger01
                  {
                    OFFSET 1.1472 -3.4929 2.6336
                    CHANNELS 3 Zrotation Xrotation Yrotation
                    JOINT RightFinger02
                    {
                      OFFSET 0.8229 -2.3 1.6571
                      CHANNELS 3 Zrotation Xrotation Yrotation
                      End Site
                      {
                        OFFSET 0.5822 -1.6914 1.1582
                      }
                    }
                  }
                }
              }
            }
          }
        }
      }
    }
  }
  JOINT RightHip
  {
    OFFSET -9.412 3.9771 -0.7758
    CHANNELS 3 Zrotation Xrotation Yrotation
    JOINT RightKnee
    {
      OFFSET -0.7531 -40.938 0
      CHANNELS 3 Zrotation Xrotation Yrotation
      JOINT RightAnkle
      {
        OFFSET 0 -40.1986 0
        CHANNELS 3 Zrotation Xrotation Yrotation
        JOINT RightToe
        {
          OFFSET 0 -4.4182 9.239
          CHANNELS 3 Zrotation Xrotation Yrotation
          End Site
          {
            OFFSET 0 0 6.1981
          }
        }
      }
    }
  }
  JOINT LeftHip
  {
    OFFSET 9.4119 3.9773 -0.7758
    CHANNELS 3 Zrotation Xrotation Yrotation
    JOINT LeftKnee
    {
      OFFSET 0.7532 -40.9383 0
      CHANNELS 3 Zrotation Xrotation Yrotation
      JOINT LeftAnkle
      {
        OFFSET 0 -40.1986 0
        CHANNELS 3 Zrotation Xrotation Yrotation
        JOINT LeftToe
        {
          OFFSET 0 -4.4182 9.239
          CHANNELS 3 Zrotation Xrotation Yrotation
          End Site
          {
            OFFSET 0 0 6.1981
          }
        }
      }
    }
  }
}
MOTION
Frames:	6
Frame Time:	0.0333333
5.72205e-005 65.662 3.42586 0 0 -0 0 0 -0 0 0 -0 0 0 -0 0 0 -0 0 0 -0 0 0 -12.5014 88.1196 14.2451 10.6914 -0.00160068 -0.00239207 0.000740045 -8.4365e-005 7.00714e-005 -9.52055e-007 9.93923e-017 -1.98785e-016 -1.59028e-015 9.93923e-017 -5.96354e-016 -1.59028e-015 -9.93923e-017 -5.96354e-016 -1.59028e-015 9.93923e-017 -1.98785e-016 -1.59028e-015 -0.0128176 0.00232552 8.52707e-005 9.93923e-017 5.96354e-016 -0 9.93923e-017 -1.98785e-016 -1.59028e-015 -0.0160551 0.00299681 0.000857156 -2.48481e-016 0 3.18055e-015 9.93923e-017 -1.98785e-016 -1.59028e-015 -0.0125865 0.0031206 0.00282719 0 1.98785e-016 -0 9.93923e-017 -1.98785e-016 -1.59028e-015 9.93923e-017 -5.96354e-016 -1.59028e-015 -9.93923e-017 -5.96354e-016 -1.59028e-015 -0.865644 0.16582 7.03859 -88.0329 10.2057 -10.5567 0.0015593 -0.00248883 -0.000788628 7.87605e-005 4.10553e-005 1.24965e-005 -3.97569e-016 -7.95139e-016 3.18055e-015 -1.98785e-016 -3.97569e-016 3.18055e-015 -1.98785e-016 0 3.18055e-015 -3.97569e-016 -7.95139e-016 3.18055e-015 0.0129473 0.00231697 -8.70038e-005 9.93923e-017 -7.95139e-016 1.59028e-015 -3.97569e-016 -7.95139e-016 3.18055e-015 0.0163314 0.00303369 -0.000872333 3.97569e-016 7.95139e-016 -3.18055e-015 -3.97569e-016 -7.95139e-016 3.18055e-015 0.0145763 0.00367772 -0.00326275 9.93923e-017 -3.97569e-016 -0 -3.97569e-016 -7.95139e-016 3.18055e-015 -1.98785e-016 -3.97569e-016 3.18055e-015 -1.98785e-016 0 3.18055e-015 3.42482 1.32465 -0.0626183 0.000117508 0.717283 0.000978199 -3.4257 -2.04197 -0.0604716 6.47761e-025 0 -0 -3.42483 1.34017 0.0627307 -0.000193936 0.682302 -0.0013703 3.42574 -2.02253 0.0595886 -8.45714e-024 0 -7.40531e-025 
39.7681 -6.50362 47.2412 5.28498e-008 70.9971 -7.56698e-008 -0.256891 3.1546 -0.171296 -0.505472 6.30995 -0.32915 -0.505472 6.30994 -0.32915 5.13383e-006 -24.0063 2.71863e-006 -0.0600577 -22.3427 -0.0243367 -5.15815 -0.268755 -10.6948 68.0928 -33.8003 66.1874 97.6796 -59.711 68.7531 -6.61495 1.4255 -7.33711 0 0 -1.98785e-015 -1.59028e-015 -6.36111e-015 -1.98785e-015 -4.8553e-031 -6.36111e-015 -4.37326e-015 0 0 -1.98785e-015 -0.0128129 0.00231243 8.39265e-005 -2.38542e-015 3.18055e-015 -0 0 0 -1.98785e-015 -0.016047 0.00298277 0.00085397 -1.10348e-031 -3.18055e-015 -1.98785e-015 0 0 -1.98785e-015 -0.0125584 0.0031054 0.00281964 7.95139e-016 9.54166e-015 -2.38542e-015 0 0 -1.98785e-015 -1.59028e-015 -6.36111e-015 -1.98785e-015 -4.8553e-031 -6.36111e-015 -4.37326e-015 8.16292 -0.0923206 3.89912 -52.4488 -34.35 -53.9763 -101.897 -54.5049 -73.8036 6.45392 1.28476 7.50893 9.93923e-016 -1.27222e-014 2.98177e-016 1.19271e-015 -3.18055e-015 5.96354e-016 1.39149e-015 -3.18055e-015 1.49089e-015 9.93923e-016 -1.27222e-014 2.98177e-016 0.01294 0.00232069 -8.30025e-005 -2.43494e-006 -1.24866e-007 -5.17008e-006 9.93923e-016 -1.27222e-014 2.98177e-016 0.0163097 0.00302 -0.000872587 -2.44633e-007 2.12222e-006 3.05448e-006 9.93923e-016 -1.27222e-014 2.98177e-016 0.0145488 0.0036724 -0.00325619 -9.93923e-016 -3.18055e-015 2.48481e-015 9.93923e-016 -1.27222e-014 2.98177e-016 1.19271e-015 -3.18055e-015 5.96354e-016 1.39149e-015 -3.18055e-015 1.49089e-015 -37.9648 9.92278 -47.27 9.86393 30.0602 -20.922 -7.68251 43.023 18.4844 -2.62235e-007 8.6027e-006 -7.99002e-006 31.3613 12.4586 47.2265 -7.44922 23.674 19.9534 6.05556 42.4181 -16.4898 8.12287e-006 -4.08178e-006 -5.21868e-006 
39.7681 -6.45974 47.2579 0 71.4413 -0 -0.259473 3.01724 -0.173968 -0.510823 6.03525 -0.334928 -0.510823 6.03522 -0.334928 -6.09154e-006 -24.3949 -3.27909e-006 -0.0598519 -21.9541 -0.0238804 -4.18648 0.151397 -11.1686 66.6708 -32.0474 65.5762 98.7965 -59.7439 69.7148 -5.84316 1.89372 -5.77523 -8.82781e-032 3.18055e-015 1.59028e-015 -7.95139e-016 3.18055e-015 -1.59028e-015 7.95139e-016 3.18055e-015 -1.59028e-015 -8.82781e-032 3.18055e-015 1.59028e-015 -0.0128249 0.00231791 8.35394e-005 -7.95139e-016 -6.36111e-015 7.95139e-016 -8.82781e-032 3.18055e-015 1.59028e-015 -0.0160651 0.00299663 0.000859191 -5.56597e-015 0 9.93923e-015 -8.82781e-032 3.18055e-015 1.59028e-015 -0.0125903 0.00312054 0.0028245 -7.95139e-016 0 -0 -8.82781e-032 3.18055e-015 1.59028e-015 -7.95139e-016 3.18055e-015 -1.59028e-015 7.95139e-016 3.18055e-015 -1.59028e-015 7.74318 -0.182819 3.65473 -51.5886 -33.6762 -53.4919 -102.521 -54.593 -74.3113 6.41982 1.42165 6.82374 5.96354e-016 0 2.98177e-015 -3.97569e-016 -3.18055e-015 3.08116e-015 -7.1726e-032 3.18055e-015 1.2921e-015 5.96354e-016 0 2.98177e-015 0.0129338 0.00231969 -8.53975e-005 -9.93923e-016 -3.18055e-015 3.97569e-016 5.96354e-016 0 2.98177e-015 0.0163329 0.00302925 -0.000871669 -9.93923e-016 -1.59028e-014 4.96962e-016 5.96354e-016 0 2.98177e-015 0.0145375 0.00366448 -0.00325106 -5.96354e-016 -3.18055e-015 1.49089e-015 5.96354e-016 0 2.98177e-015 -3.97569e-016 -3.18055e-015 3.08116e-015 -7.1726e-032 3.18055e-015 1.2921e-015 -37.7844 9.52475 -47.3223 9.73598 29.8718 -20.8785 -7.40286 43.1566 18.1785 -2.18663e-015 3.18055e-015 3.67752e-015 31.1683 12.099 47.2404 -7.38875 23.3889 19.9577 5.87825 42.5914 -16.2211 -1.36254e-006 3.92928e-006 4.70581e-006 
39.7681 -6.41551 47.2749 2.69793e-007 71.8857 -1.72861e-007 -0.262068 2.87971 -0.176619 -0.516214 5.76016 -0.340676 -0.516215 5.76018 -0.340676 -4.71701e-006 -24.7837 -2.85157e-006 -0.0596509 -21.5654 -0.0234267 -3.2097 0.563954 -11.6502 65.2919 -30.2823 65.0253 99.9141 -59.7683 70.6687 -5.0811 2.38485 -4.21282 -7.07179e-006 8.28858e-006 5.00877e-006 1.59028e-015 0 1.19271e-015 6.58897e-007 -1.38354e-006 2.28331e-006 -7.07179e-006 8.28858e-006 5.00877e-006 -0.0128324 0.00232802 8.66799e-005 -1.59372e-006 -6.60115e-007 2.27194e-006 -7.07179e-006 8.28858e-006 5.00877e-006 -0.0160308 0.00297802 0.000846631 1.59028e-015 6.36111e-015 1.59028e-015 -7.07179e-006 8.28858e-006 5.00877e-006 -0.0125758 0.00310855 0.00282207 3.08455e-006 2.85691e-006 -1.44902e-006 -7.07179e-006 8.28858e-006 5.00877e-006 1.59028e-015 0 1.19271e-015 6.58897e-007 -1.38354e-006 2.28331e-006 7.32295 -0.271639 3.40964 -50.74 -32.9965 -53.0223 -103.15 -54.6778 -74.822 6.38731 1.559 6.13816 1.39149e-015 9.54166e-015 -1.78906e-015 -1.48393e-006 4.77218e-006 -7.40152e-007 1.98785e-016 -3.18055e-015 2.98177e-016 1.39149e-015 9.54166e-015 -1.78906e-015 0.0129472 0.00232025 -8.94951e-005 -1.76556e-031 6.36111e-015 1.59028e-015 1.39149e-015 9.54166e-015 -1.78906e-015 0.0163108 0.00303273 -0.000874967 1.19271e-015 0 -3.97569e-016 1.39149e-015 9.54166e-015 -1.78906e-015 0.0145988 0.00368133 -0.00326749 -1.39149e-015 -3.18055e-015 1.2921e-015 1.39149e-015 9.54166e-015 -1.78906e-015 -1.48393e-006 4.77218e-006 -7.40152e-007 1.98785e-016 -3.18055e-015 2.98177e-016 -37.6049 9.12698 -47.373 9.60973 29.6831 -20.8363 -7.12229 43.2891 17.8712 -3.67523e-006 -4.51624e-007 -9.46768e-007 30.9759 11.739 47.2531 -7.32824 23.1045 19.9623 5.69886 42.7638 -15.9506 4.04442e-006 -6.9206e-006 3.14264e-006 
39.7681 -6.37095 47.2923 -2.07425e-007 72.3301 1.54371e-007 -0.264674 2.742 -0.179249 -0.521643 5.48475 -0.346393 -0.521645 5.48478 -0.346394 1.02713e-005 -25.1726 5.92074e-006 -0.0594525 -21.1766 -0.022976 -2.22795 0.968709 -12.1395 63.949 -28.4969 64.5297 101.036 -59.7829 71.6284 -4.32974 2.8984 -2.65086 2.38542e-015 -3.18055e-015 4.37326e-015 -0 0 2.78299e-015 -7.95139e-016 0 3.18055e-015 2.38542e-015 -3.18055e-015 4.37326e-015 -0.0128063 0.00233092 7.89376e-005 -8.82781e-032 1.27222e-014 3.97569e-016 2.38542e-015 -3.18055e-015 4.37326e-015 -0.0160522 0.00300529 0.000857515 7.95139e-016 3.18055e-015 7.95139e-016 2.38542e-015 -3.18055e-015 4.37326e-015 -0.0126089 0.00311743 0.00282996 -4.77083e-015 3.18055e-015 7.55382e-015 2.38542e-015 -3.18055e-015 4.37326e-015 -0 0 2.78299e-015 -7.95139e-016 0 3.18055e-015 6.90224 -0.358817 3.16385 -49.9004 -32.3123 -52.5662 -103.785 -54.7592 -75.337 6.35645 1.6968 5.45226 -3.97569e-016 0 -2.5842e-015 -7.95139e-016 6.36111e-015 -2.98177e-016 0 0 -1.88845e-015 -3.97569e-016 0 -2.5842e-015 0.012963 0.00231287 -8.14857e-005 -9.93923e-016 1.27222e-014 -6.95746e-016 -3.97569e-016 0 -2.5842e-015 0.0163381 0.0030322 -0.000867928 -7.95139e-016 -3.18055e-015 -9.93923e-017 -3.97569e-016 0 -2.5842e-015 0.0145707 0.00366334 -0.00325436 9.93923e-016 -9.54166e-015 -1.59028e-015 -3.97569e-016 0 -2.5842e-015 -7.95139e-016 6.36111e-015 -2.98177e-016 0 0 -1.88845e-015 -37.4263 8.72945 -47.422 9.48544 29.494 -20.7955 -6.84097 43.4205 17.5625 -5.34261e-007 9.27969e-006 3.46494e-006 30.7839 11.3787 47.2646 -7.26766 22.8204 19.967 5.51757 42.9355 -15.6785 1.30427e-007 3.71627e-006 5.41734e-008 
39.7681 -6.32603 47.3101 -1.45918e-008 72.7747 2.4733e-008 -0.267282 2.60407 -0.181852 -0.527097 5.20893 -0.352072 -0.527097 5.20894 -0.352072 -1.16028e-005 -25.5614 -6.76154e-006 -0.0592586 -20.7878 -0.0225273 -1.24145 1.36581 -12.6364 62.639 -26.6969 64.087 102.161 -59.788 72.5905 -3.58999 3.43391 -1.09012 -7.95139e-016 0 1.19271e-015 -1.10348e-031 3.18055e-015 1.98785e-015 -7.95139e-016 3.18055e-015 -0 -7.95139e-016 0 1.19271e-015 -0.0127992 0.00230728 7.36551e-005 -1.59028e-015 -9.54166e-015 -7.95139e-016 -7.95139e-016 0 1.19271e-015 -0.016031 0.00297655 0.000839892 -6.43585e-006 7.70017e-006 7.25599e-006 -7.95139e-016 0 1.19271e-015 -0.0125998 0.0031122 0.00281878 -1.76556e-031 6.36111e-015 1.59028e-015 -7.95139e-016 0 1.19271e-015 -1.10348e-031 3.18055e-015 1.98785e-015 -7.95139e-016 3.18055e-015 -0 6.48103 -0.443902 2.91732 -49.081 -31.6171 -52.1292 -104.412 -54.838 -75.8503 6.32717 1.83501 4.76608 1.02e-005 -9.79475e-007 -4.52472e-006 7.95139e-016 0 -2.98177e-016 -1.02e-005 9.79474e-007 4.52472e-006 1.02e-005 -9.79475e-007 -4.52472e-006 0.0129512 0.0023186 -8.69349e-005 -1.78906e-015 0 -1.98785e-016 1.02e-005 -9.79475e-007 -4.52472e-006 0.0163283 0.00303645 -0.000872337 -1.57903e-006 1.18216e-006 2.00074e-006 1.02e-005 -9.79475e-007 -4.52472e-006 0.0145522 0.00367085 -0.00324854 9.93923e-016 0 -0 1.02e-005 -9.79475e-007 -4.52472e-006 7.95139e-016 0 -2.98177e-016 -1.02e-005 9.79474e-007 4.52472e-006 -37.2488 8.33246 -47.4694 9.36336 29.3048 -20.7561 -6.55898 43.5507 17.2527 -4.01349e-006 -3.51184e-006 -3.18199e-006 30.5923 11.0181 47.2751 -7.20706 22.5367 19.9718 5.33424 43.1065 -15.4045 -6.88196e-006 -5.8338e-006 4.6279e-007 
